<?xml version="1.0" standalone="no"?>
<!DOCTYPE svg PUBLIC "-//W3C//DTD SVG 20010904//EN"
 "http://www.w3.org/TR/2001/REC-SVG-20010904/DTD/svg10.dtd">
<svg version="1.0" xmlns="http://www.w3.org/2000/svg"
 width="485.000000pt" height="562.000000pt" viewBox="0 0 485.000000 562.000000"
 preserveAspectRatio="xMidYMid meet">
<metadata>
Created by potrace 1.11, written by Peter Selinger 2001-2013
</metadata>
<g transform="translate(0.000000,562.000000) scale(0.100000,-0.100000)"
fill="#000000" stroke="none">
<path d="M0 2810 l0 -2810 1665 0 c916 0 1665 2 1665 4 0 2 -24 11 -54 20 -49
16 -59 24 -93 77 -44 69 -110 109 -179 109 -52 0 -107 27 -254 125 -62 41
-118 75 -124 75 -7 0 -28 12 -47 26 -29 22 -41 25 -83 20 -49 -5 -50 -5 -104
49 l-54 54 7 53 c11 79 31 120 77 153 23 17 47 34 54 40 10 7 21 1 42 -24 24
-29 33 -33 55 -27 18 4 27 13 27 26 0 24 21 35 83 44 44 7 51 5 72 -18 14 -15
35 -26 50 -26 14 0 25 -6 25 -12 0 -7 18 -23 40 -36 l40 -23 48 21 c39 18 59
20 117 15 80 -7 180 18 220 55 29 27 99 44 125 30 29 -15 55 -12 75 10 10 11
31 20 47 20 17 0 41 9 55 20 27 21 87 27 98 10 13 -20 43 10 65 65 19 46 21
60 11 81 -6 14 -11 33 -11 44 0 23 45 60 74 60 62 0 88 70 43 119 -16 17 -35
69 -57 150 -22 80 -43 135 -58 153 -14 17 -33 64 -46 116 -37 144 -67 180
-115 141 -33 -27 -67 -24 -110 10 -20 15 -61 43 -91 61 -30 19 -56 34 -58 35
-1 1 3 24 9 51 11 46 9 54 -14 101 -14 28 -33 53 -41 56 -8 3 -49 -1 -91 -10
-92 -18 -111 -10 -78 36 l22 28 -25 22 c-21 18 -29 20 -67 11 -57 -13 -55 -14
-62 22 -4 18 -19 51 -34 73 -15 22 -36 59 -47 83 -21 48 -51 62 -90 42 -21
-12 -31 -10 -73 10 -35 16 -58 21 -78 16 -80 -20 -79 -20 -109 23 -23 31 -41
44 -83 57 -42 14 -61 27 -90 64 -20 26 -55 60 -78 76 -40 27 -54 46 -67 86 -3
11 -11 15 -20 12 -8 -3 1 11 20 31 19 21 33 39 30 42 -2 3 -20 -3 -40 -12 -31
-15 -41 -30 -38 -56 1 -4 -7 -14 -18 -24 -15 -14 -18 -14 -16 -2 1 8 7 21 13
28 27 35 9 71 -42 80 -11 3 -33 29 -53 64 -18 33 -47 74 -64 92 -32 33 -96 55
-139 46 -36 -7 -58 21 -35 45 23 26 21 35 -24 87 -22 25 -40 50 -40 54 0 4
-16 15 -35 24 -28 13 -35 23 -35 44 0 36 -29 55 -70 47 -25 -5 -30 -12 -31
-35 -1 -16 -3 -33 -4 -39 -1 -5 -3 -17 -4 -25 -1 -17 -37 -20 -47 -4 -4 6 -19
9 -37 5 -34 -7 -57 7 -57 35 0 18 14 24 70 32 36 5 80 28 78 41 -1 6 2 37 6
68 8 62 -5 116 -48 198 -16 31 -26 71 -31 130 -10 129 -57 208 -126 214 -45 4
-81 23 -166 90 -40 31 -78 54 -85 51 -8 -3 -31 8 -52 24 -58 47 -93 49 -164
11 -42 -22 -62 -39 -67 -57 -3 -13 -18 -31 -33 -40 -24 -14 -72 -74 -72 -91 0
-15 -97 -70 -140 -80 -74 -18 -118 -23 -123 -15 -3 4 -8 22 -11 39 -6 26 0 38
35 82 54 68 48 84 -25 76 -52 -6 -59 -4 -125 35 -61 37 -72 48 -85 89 -24 69
-21 117 12 160 15 20 32 42 39 47 17 15 -2 55 -26 55 -22 0 -71 57 -71 83 0 9
-6 20 -14 24 -8 4 -17 19 -21 33 -9 39 23 64 74 57 31 -4 44 -1 57 14 9 10 25
19 36 19 12 0 18 7 18 21 0 11 5 29 10 39 8 15 4 26 -19 52 -15 18 -32 49 -36
68 -4 19 -18 52 -32 72 -31 46 -25 70 25 91 20 9 44 22 54 29 13 9 20 9 33 -2
20 -17 76 -14 124 6 46 19 84 18 113 -5 24 -20 24 -20 51 7 62 62 77 89 71
121 -5 26 -3 32 18 42 14 6 33 25 43 42 24 41 33 47 73 47 l32 0 -6 -54 c-6
-52 -5 -56 32 -100 24 -29 46 -46 60 -46 28 0 46 -22 42 -52 -5 -37 14 -36 36
3 12 20 35 55 53 78 25 33 33 56 38 106 8 70 21 83 71 71 17 -5 24 -13 24 -32
0 -51 48 -92 75 -65 6 5 33 11 60 13 45 3 50 1 53 -19 2 -12 10 -27 18 -34 13
-11 14 -9 8 17 -4 16 -11 31 -16 32 -13 6 -9 59 6 97 19 44 61 58 85 28 16
-20 51 -38 51 -26 0 4 -7 14 -16 24 -15 16 -15 22 1 69 19 56 39 70 102 70 26
0 36 -5 40 -19 3 -12 16 -21 36 -24 37 -5 50 3 66 41 6 15 22 34 34 42 29 18
177 40 198 29 11 -5 41 0 85 16 l69 24 -1132 0 -1133 1 0 -2810z m910 1270 c0
-20 5 -30 15 -30 10 0 15 10 15 30 0 33 29 44 31 13 1 -10 2 -30 3 -45 2 -36
13 -45 21 -18 4 11 2 27 -4 34 -15 18 -4 26 36 26 27 0 33 -4 34 -22 l2 -23 4
23 c4 18 11 22 44 22 21 0 39 5 39 10 0 6 7 10 15 10 8 0 15 -7 15 -16 0 -9 9
-18 20 -21 21 -5 28 -33 9 -33 -5 0 -7 5 -3 12 4 7 3 8 -4 4 -20 -12 -13 -26
12 -26 19 0 22 4 19 24 -3 15 -13 27 -27 29 -20 4 -20 4 2 6 16 1 25 -7 32
-25 14 -36 6 -43 -45 -42 -37 0 -45 4 -45 19 0 11 -4 19 -10 19 -5 0 -10 -9
-10 -21 0 -19 -5 -21 -45 -17 -29 2 -46 -1 -50 -9 -5 -15 -51 -17 -60 -3 -3 6
-27 11 -53 11 -46 2 -46 2 -12 9 23 5 28 8 13 9 -18 1 -23 7 -23 30 0 16 -6
32 -12 34 -8 3 -6 6 5 6 12 1 17 -7 17 -29z m-40 -700 c0 -29 -4 -40 -15 -40
-8 0 -15 -4 -15 -10 0 -5 11 -10 25 -10 20 0 25 -5 25 -25 0 -14 6 -25 13 -26
10 0 10 -2 0 -6 -7 -2 -13 -13 -13 -24 0 -14 -7 -19 -25 -19 -17 0 -25 -6 -26
-17 -1 -17 -2 -17 -6 0 -3 10 -14 17 -29 17 -17 0 -24 5 -24 20 0 11 -6 20
-12 21 -10 0 -10 2 0 6 6 2 12 16 12 29 0 19 5 24 25 24 27 0 34 15 10 24 -9
3 -15 19 -15 41 0 33 2 35 35 35 34 0 35 -1 35 -40z m250 -885 c7 -8 18 -15
25 -15 7 0 18 -7 25 -15 7 -8 23 -15 36 -15 21 0 24 -5 24 -34 0 -19 5 -38 11
-42 6 -3 9 -14 6 -23 -2 -9 2 -22 9 -29 8 -7 16 -25 19 -40 3 -15 10 -41 15
-58 6 -17 10 -39 10 -50 0 -11 7 -29 15 -40 25 -32 18 -73 -22 -128 -37 -51
-44 -86 -22 -112 11 -14 9 -39 -30 -319 -11 -77 -25 -156 -32 -175 -7 -19 -13
-40 -15 -46 -1 -6 -14 -14 -29 -18 -19 -5 -36 1 -70 24 -24 16 -51 30 -60 30
-9 0 -26 5 -38 11 -20 9 -21 9 -4 -4 15 -13 16 -15 2 -21 -10 -3 -15 -19 -15
-45 0 -35 -5 -44 -43 -75 -38 -31 -49 -35 -96 -34 -51 1 -54 3 -68 36 -8 19
-30 57 -49 84 -33 48 -43 91 -26 102 5 3 7 29 4 59 -3 34 1 63 9 78 7 13 16
44 19 69 4 35 9 45 23 44 13 -1 17 6 17 35 0 33 -3 37 -22 37 -20 -1 -23 5
-26 48 -2 35 2 53 14 68 22 23 20 107 -2 124 -8 6 -14 27 -14 47 0 57 -15 83
-49 90 -30 6 -31 7 -27 64 12 169 23 189 75 134 37 -39 78 -47 116 -21 17 11
36 20 44 20 13 0 104 77 171 145 27 28 52 32 70 10z m2130 -412 c0 -34 15 -60
24 -44 4 6 3 11 -2 11 -5 0 -9 7 -9 15 0 9 10 15 24 15 13 0 23 -6 23 -14 0
-8 3 -21 6 -30 5 -13 -2 -16 -39 -16 -41 0 -44 2 -40 24 3 13 0 27 -6 30 -7 5
-11 -4 -11 -23 0 -17 -4 -31 -9 -31 -4 0 -7 12 -5 28 l4 27 -12 -28 c-11 -25
-17 -28 -58 -27 -71 3 -80 1 -80 -15 0 -8 -7 -15 -15 -15 -8 0 -15 7 -15 15 0
8 -7 15 -15 15 -8 0 -15 9 -15 19 0 23 -19 38 -29 23 -4 -7 -13 -5 -26 4 -17
13 -6 14 95 13 63 -1 109 -4 103 -6 -7 -3 -13 -14 -13 -25 0 -26 24 -18 28 10
3 17 10 22 32 22 15 0 30 7 34 15 9 25 26 17 26 -12z m-939 -473 c193 0 299 4
299 10 0 6 5 10 10 10 6 0 10 -9 10 -20 0 -19 -7 -20 -110 -20 -107 0 -110 -1
-111 -22 0 -13 -3 -17 -6 -10 -7 18 -389 18 -396 0 -3 -7 -5 7 -5 32 0 25 2
39 5 33 4 -10 74 -13 304 -13z"/>
<path d="M2317 5602 c2 -10 -3 -24 -11 -31 -22 -19 -20 -48 4 -56 11 -4 20
-15 20 -27 0 -20 63 -87 84 -89 27 -3 62 4 67 13 4 7 9 6 13 -1 4 -6 18 -11
30 -11 23 0 51 -22 41 -32 -5 -5 107 -23 205 -33 74 -8 84 -15 75 -54 -4 -17
-11 -31 -16 -31 -5 0 -1 -8 9 -18 13 -14 19 -15 25 -5 13 21 39 16 32 -6 -5
-16 -1 -18 24 -15 25 3 29 0 24 -14 -5 -14 -3 -14 9 2 17 22 44 16 51 -11 2
-10 3 -8 2 5 -3 29 19 23 23 -6 2 -12 7 -22 12 -22 6 0 6 10 1 23 -9 23 -8 24
43 26 52 1 53 1 53 -29 l0 -30 -72 1 c-68 1 -73 3 -83 28 l-12 26 4 -26 c2
-24 -1 -26 -35 -27 -33 -2 -38 2 -48 29 -6 17 -8 35 -5 40 3 5 1 9 -4 9 -5 0
-14 -10 -20 -22 l-11 -23 -7 23 c-3 12 -10 22 -15 22 -12 0 -11 -6 7 -42 16
-31 17 -31 32 -12 13 17 14 17 8 1 -3 -10 -6 -21 -6 -23 0 -2 -6 -4 -14 -4 -7
0 -23 21 -34 47 l-20 46 -31 -32 c-36 -37 -39 -51 -11 -51 33 0 70 -22 70 -43
0 -10 -9 -30 -20 -44 -18 -24 -19 -27 -4 -38 13 -9 15 -20 10 -47 -6 -31 -3
-39 20 -57 15 -12 32 -21 39 -21 7 0 15 -7 19 -15 3 -8 12 -15 21 -15 17 0 20
-16 5 -25 -6 -4 -10 -12 -9 -18 3 -26 -2 -36 -20 -42 -24 -7 -51 3 -45 19 2 6
-9 25 -26 41 l-30 29 -23 -22 c-29 -27 -45 -27 -77 -2 -35 27 -60 26 -60 -4 0
-24 -28 -43 -90 -61 -46 -14 -150 -77 -150 -91 0 -16 -16 -19 -25 -4 -9 14
-52 -9 -58 -31 -7 -27 3 -59 19 -59 14 0 17 -10 15 -46 -1 -13 12 -33 33 -52
38 -33 44 -59 26 -106 -8 -21 -16 -26 -46 -26 l-37 0 7 -82 c12 -139 33 -207
78 -254 35 -37 39 -44 28 -64 -11 -20 -10 -21 12 -15 30 10 45 13 35 7 -12 -6
25 -31 46 -32 11 0 47 -24 80 -53 100 -86 134 -110 140 -95 3 9 9 8 19 -6 10
-12 21 -17 32 -13 9 4 15 3 11 -2 -3 -5 3 -24 14 -43 29 -49 96 -233 116 -318
25 -105 86 -222 113 -213 6 3 12 -3 12 -12 0 -14 6 -16 27 -10 l27 6 -19 -21
c-20 -22 -20 -22 5 -41 34 -27 105 -91 165 -148 29 -27 73 -57 105 -70 l54
-22 36 37 c29 30 31 35 13 29 -13 -3 -23 -2 -23 3 0 5 12 9 27 8 23 -1 28 3
30 28 3 43 13 45 13 3 0 -26 -8 -46 -26 -67 -15 -16 -30 -27 -34 -25 -4 3 -15
-4 -25 -15 -10 -11 -21 -17 -26 -14 -5 2 -18 -14 -29 -37 -13 -25 -16 -38 -8
-33 39 22 67 46 65 54 -1 5 50 11 113 14 63 2 145 7 182 11 63 7 67 6 93 -19
37 -37 28 -79 -31 -130 -48 -41 -56 -72 -26 -98 46 -41 313 -155 334 -142 5 3
15 -1 21 -9 7 -7 44 -27 82 -42 39 -16 99 -50 135 -76 36 -26 79 -51 95 -55
17 -4 47 -18 67 -31 21 -12 44 -23 51 -23 8 0 34 -21 59 -47 25 -27 77 -76
116 -111 89 -79 105 -118 79 -192 -9 -26 -17 -63 -17 -82 0 -68 -47 -76 -127
-21 -50 34 -73 72 -73 119 0 6 -15 28 -34 49 -32 38 -35 39 -107 43 -45 2 -95
12 -127 25 -46 18 -53 25 -49 44 4 21 0 23 -33 23 -47 0 -75 -30 -129 -137
-29 -59 -41 -95 -41 -126 0 -31 -6 -49 -20 -62 -23 -21 -28 -86 -7 -103 6 -5
32 -16 57 -23 25 -7 61 -25 81 -41 20 -15 40 -28 43 -28 3 0 21 -10 40 -22 33
-22 33 -22 34 -104 0 -45 5 -91 12 -104 14 -26 6 -83 -15 -100 -9 -8 -29 -9
-54 -5 -47 8 -94 -11 -137 -56 -28 -29 -29 -34 -27 -109 3 -95 -13 -140 -62
-170 -43 -26 -89 -92 -99 -140 -3 -19 -16 -44 -28 -57 -19 -20 -31 -23 -104
-23 -76 0 -83 2 -98 25 -9 13 -16 41 -17 62 0 45 1 46 -73 -88 -28 -53 -58
-121 -65 -151 -6 -31 -18 -64 -26 -74 -8 -11 -15 -30 -15 -43 0 -25 54 -94 65
-83 5 4 5 -6 1 -22 -5 -19 -2 -36 10 -53 11 -18 12 -23 3 -18 -8 4 -4 -2 9
-14 12 -12 22 -25 22 -28 0 -4 -20 -26 -45 -50 -40 -38 -45 -48 -45 -86 0 -24
-5 -48 -12 -55 -9 -9 149 -12 670 -12 l682 0 0 2810 0 2810 -1269 0 c-1222 0
-1269 -1 -1264 -18z m165 -1438 c16 -16 18 -16 24 0 3 9 15 16 25 16 14 0 19
-7 19 -27 0 -49 11 -71 36 -76 30 -5 31 -3 26 32 -3 22 -11 31 -28 34 -21 4
-20 4 3 3 20 -1 29 -8 34 -26 l7 -25 1 28 c1 23 5 27 31 27 20 0 30 5 30 15 0
8 7 15 15 15 12 0 15 -13 15 -55 0 -42 -3 -55 -15 -55 -9 0 -15 10 -15 26 0
32 -24 27 -28 -5 -3 -17 -9 -22 -23 -18 -10 3 -21 1 -24 -4 -3 -4 -13 -5 -22
-2 -11 4 -14 2 -9 -5 8 -13 -23 -31 -43 -24 -8 3 -11 0 -7 -6 10 -16 -28 -34
-42 -20 -8 8 -16 7 -29 -3 -16 -13 -17 -12 -4 3 9 13 22 16 43 13 18 -4 27 -2
23 4 -7 13 26 30 45 23 12 -4 13 -3 2 10 -7 9 -22 13 -37 10 -20 -3 -25 0 -25
17 0 14 -4 20 -11 15 -6 -3 -15 0 -20 7 -6 10 -9 6 -9 -13 0 -20 -5 -28 -17
-27 -11 0 -13 3 -5 6 6 2 12 16 12 29 0 25 14 32 25 14 5 -8 11 -7 21 1 11 9
14 7 14 -15 0 -14 5 -26 10 -26 6 0 10 20 10 45 0 49 -4 53 -32 28 -16 -15
-20 -15 -31 -1 -6 9 -19 18 -27 21 -12 4 -12 6 -1 6 8 1 23 -6 33 -15z"/>
</g>
</svg>
